HIERARCHY
ROOT Hips
{
  OFFSET 52.6907 93.8384 11.375
  CHANNELS 6 Xposition Yposition Zposition Zrotation Xrotation Yrotation
  JOINT spine
  {
    OFFSET 0 7.4756 0.429885
    CHANNELS 3 Zrotation Xrotation Yrotation
    JOINT spine1
    {
      OFFSET 0 9.92301 0
      CHANNELS 3 Zrotation Xrotation Yrotation
      JOINT spine2
      {
        OFFSET 0 9.50804 0
        CHANNELS 3 Zrotation Xrotation Yrotation
        JOINT Neck
        {
          OFFSET 0 24.4111 1.16384
          CHANNELS 3 Zrotation Xrotation Yrotation
          JOINT Head
          {
            OFFSET 0 7.37523 0
            CHANNELS 3 Zrotation Xrotation Yrotation
            End Site
            {
              OFFSET 0 17.8522 -5.88741
            }
          }
        }
        JOINT RightShoulder
        {
          OFFSET -4.00356 10.2679 -0.557468
          CHANNELS 3 Zrotation Xrotation Yrotation
          JOINT RightArm
          {
            OFFSET 0 13.4673 0
            CHANNELS 3 Zrotation Xrotation Yrotation
            JOINT RightArmRoll
            {
              OFFSET 0 6.79858 0
              CHANNELS 3 Zrotation Xrotation Yrotation
              JOINT RightForeArm
              {
                OFFSET 0 19.8018 0
                CHANNELS 3 Zrotation Xrotation Yrotation
                JOINT RightForeArmRoll
                {
                  OFFSET 0 7.62905 0
                  CHANNELS 3 Zrotation Xrotation Yrotation
                  JOINT RightHand
                  {
                    OFFSET 0 15.3098 0
                    CHANNELS 3 Zrotation Xrotation Yrotation
                    End Site
                    {
                      OFFSET 0 0 0
                    }
                  }
                }
              }
            }
          }
        }
        JOINT LeftShoulder
        {
          OFFSET 4.00356 10.2679 -0.557468
          CHANNELS 3 Zrotation Xrotation Yrotation
          JOINT LeftArm
          {
            OFFSET 0 13.4673 0
            CHANNELS 3 Zrotation Xrotation Yrotation
            JOINT LeftArmRoll
            {
              OFFSET 0 6.79858 0
              CHANNELS 3 Zrotation Xrotation Yrotation
              JOINT LeftForeArm
              {
                OFFSET 0 19.8018 0
                CHANNELS 3 Zrotation Xrotation Yrotation
                JOINT LeftForeArmRoll
                {
                  OFFSET 0 7.62905 0
                  CHANNELS 3 Zrotation Xrotation Yrotation
                  JOINT LeftHand
                  {
                    OFFSET 0 15.3098 0
                    CHANNELS 3 Zrotation Xrotation Yrotation
                    End Site
                    {
                      OFFSET 0 0 0
                    }
                  }
                }
              }
            }
          }
        }
      }
    }
  }
  JOINT RightUpLeg
  {
    OFFSET -6.6261 -1.21505 -1.01927
    CHANNELS 3 Zrotation Xrotation Yrotation
    JOINT RightUpLegRoll
    {
      OFFSET 0 17.9517 0
      CHANNELS 3 Zrotation Xrotation Yrotation
      JOINT RightLeg
      {
        OFFSET 0 -22.2304 0
        CHANNELS 3 Zrotation Xrotation Yrotation
        JOINT RightLegRoll
        {
          OFFSET 0 22.3032 0
          CHANNELS 3 Zrotation Xrotation Yrotation
          JOINT RightFoot
          {
            OFFSET 0 18.5636 0
            CHANNELS 3 Zrotation Xrotation Yrotation
            JOINT RightToeBase
            {
              OFFSET 0 15.5183 0
              CHANNELS 3 Zrotation Xrotation Yrotation
              End Site
              {
                OFFSET 0.00657761 7.51539 -0.866262
              }
            }
          }
        }
      }
    }
  }
  JOINT LeftUpLeg
  {
    OFFSET 6.6261 -1.21505 -1.01927
    CHANNELS 3 Zrotation Xrotation Yrotation
    JOINT LeftUpLegRoll
    {
      OFFSET 0 17.9518 0
      CHANNELS 3 Zrotation Xrotation Yrotation
      JOINT LeftLeg
      {
        OFFSET 0 22.2303 0
        CHANNELS 3 Zrotation Xrotation Yrotation
        JOINT LeftLegRoll
        {
          OFFSET 0 22.5093 0
          CHANNELS 3 Zrotation Xrotation Yrotation
          JOINT LeftFoot
          {
            OFFSET 0 18.3575 0
            CHANNELS 3 Zrotation Xrotation Yrotation
            JOINT LeftToeBase
            {
              OFFSET 0 15.5183 0
              CHANNELS 3 Zrotation Xrotation Yrotation
              End Site
              {
                OFFSET -0.029478 7.51539 -0.866262
              }
            }
          }
        }
      }
    }
  }
}
MOTION
Frames: 4
Frame Time: 0.00208333
52.5544 93.8857 10.6844 0.368689 -3.98269 3.89872 0.0857685 -1.51773 0.159261 0.186836 0.967612 0.310005 0.183235 2.61267 0.30702 -13.6466 1.16867 -7.30455 18.3789 13.129 -10.1085 45.2613 -6.00741 -2.94972 146.844 65.4145 -40.6121 -1.08516e-006 1.5064e-008 -3.33263e-006 11.1395 49.3326 -8.2665 7.77431e-006 -2.44526e-006 -3 8.02963 -4.95142 0.697653 -72.4065 -1.24055 2.17217 -97.5977 52.6987 24.9052 -4.02967e-006 3.79448e-007 4.12959e-006 167.394 77.9402 -157.126 -1.28574e-006 -1.94893e-006 3.00003 -8.03001 -4.9514 -0.697643 177.286 -0.947274 0.578951 180 7.0154e-015 178.891 178.082 7.86573 179.738 -1.25824e-006 -1.14785e-006 0.13236 -19.4835 68.9936 20.4049 8.13649 25.2327 -3.48774 -177.162 -0.105806 2.82913 4.54188e-006 -4.6773e-006 -1.08018 -0.901497 -5.49538 0.125018 -1.83587e-006 7.66846e-007 -0.0252384 18.3076 67.4501 -19.0842 -8.13649 25.2327 3.48774 
52.5499 93.8857 10.6839 0.360826 -3.99274 3.82929 0.0863477 -1.5211 0.156907 0.187995 0.960883 0.305022 0.184454 2.60594 0.302015 -13.5779 1.24245 -7.25078 18.2576 13.0911 -10.0413 45.5178 -5.96481 -2.93215 146.012 64.9716 -39.9881 -1.08516e-006 1.5064e-008 -3.33263e-006 11.2827 49.7463 -8.38364 7.77431e-006 -2.44526e-006 -3 8.02963 -4.95142 0.697653 -72.2281 -1.26125 2.16456 -97.6644 53.1396 24.7807 -4.02967e-006 3.79448e-007 4.12959e-006 167.631 78.3872 -157.598 -1.28574e-006 -1.94893e-006 3.00003 -8.03001 -4.9514 -0.697643 177.295 -0.95082 0.567985 180 7.0154e-015 178.891 178.092 7.85949 179.737 -1.25824e-006 -1.14785e-006 0.132092 -19.4822 68.9913 20.4032 8.13649 25.2327 -3.48774 -177.154 -0.131513 2.81842 4.54188e-006 -4.6773e-006 -1.08029 -0.909467 -5.4911 0.124358 -1.83587e-006 7.66846e-007 -0.0253521 18.309 67.4524 -19.086 -8.13649 25.2327 3.48774 
52.5469 93.8898 10.6867 0.351242 -4.00158 3.75996 0.0871313 -1.52462 0.154284 0.189493 0.95384 0.299504 0.186019 2.5989 0.296469 -13.506 1.31392 -7.19704 18.1331 13.0535 -9.97326 45.7776 -5.92329 -2.91578 145.209 64.524 -39.3972 -1.08516e-006 1.5064e-008 -3.33263e-006 11.4229 50.1528 -8.49854 7.77431e-006 -2.44526e-006 -3 8.02963 -4.95142 0.697653 -72.0429 -1.28299 2.15691 -97.7452 53.585 24.6632 -4.02967e-006 3.79448e-007 4.12959e-006 167.881 78.8416 -158.084 -1.28574e-006 -1.94893e-006 3.00003 -8.03001 -4.9514 -0.697643 177.306 -0.954027 0.555541 180 7.0154e-015 178.892 178.103 7.8513 179.736 -1.25824e-006 -1.14785e-006 0.131798 -19.4798 68.9881 20.4004 8.13649 25.2327 -3.48774 -177.143 -0.155845 2.80636 4.54188e-006 -4.6773e-006 -1.08043 -0.917753 -5.48665 0.123673 -1.83587e-006 7.66846e-007 -0.0254648 18.3103 67.4547 -19.0878 -8.13649 25.2327 3.48774 
52.5433 93.8895 10.6843 0.339704 -4.00897 3.69069 0.0881517 -1.52835 0.151361 0.191391 0.946366 0.293404 0.18799 2.59143 0.290333 -13.4308 1.38335 -7.14317 18.0051 13.0156 -9.90421 46.0416 -5.88281 -2.90057 144.434 64.0718 -38.8384 -1.08516e-006 1.5064e-008 -3.33263e-006 11.5604 50.5526 -8.61122 7.77431e-006 -2.44526e-006 -3 8.02963 -4.95142 0.697653 -71.8508 -1.3058 2.14921 -97.842 54.0352 24.5534 -4.02967e-006 3.79448e-007 4.12959e-006 168.144 79.303 -158.585 -1.28574e-006 -1.94893e-006 3.00003 -8.03001 -4.9514 -0.697643 177.32 -0.956875 0.541431 180 7.0154e-015 178.892 178.114 7.84055 179.735 -1.25824e-006 -1.14785e-006 0.131474 -19.4763 68.9835 20.3963 8.13649 25.2327 -3.48774 -177.13 -0.178504 2.79281 4.54188e-006 -4.6773e-006 -1.0806 -0.926359 -5.48207 0.122966 -1.83587e-006 7.66846e-007 -0.0255764 18.3116 67.4571 -19.0895 -8.13649 25.2327 3.48774 
